<?xml version="1.0"?>
<svg width="146" height="25" xmlns="http://www.w3.org/2000/svg" xmlns:svg="http://www.w3.org/2000/svg">
 <g class="layer">
  <title>Layer 1</title>
  <path d="m25.34,9.66l-9.68,0l-2.98,-9.21l-3,9.21l-9.68,-0.02l7.83,5.7l-3,9.2l7.83,-5.69l7.83,5.69l-2.98,-9.2l7.83,-5.68z" fill="#0000ff" id="svg_1"/>
  <path d="m18.18,17.42l-0.67,-2.08l-4.83,3.51l5.5,-1.43z" fill="#FE330A" id="svg_2"/>
  <path d="m55.51,9.66l-9.68,0l-2.98,-9.21l-3,9.21l-9.69,-0.02l7.84,5.7l-3,9.2l7.83,-5.69l7.83,5.69l-2.98,-9.2l7.83,-5.68z" fill="#3a0afc" id="svg_3" transform="matrix(1 0 0 1 0 0)"/>
  <path d="m48.35,17.42l-0.67,-2.08l-4.83,3.51l5.5,-1.43z" fill="#FE330A" id="svg_4"/>
  <path d="m85.67,9.66l-9.68,0l-2.98,-9.21l-3,9.21l-9.68,-0.02l7.83,5.7l-3,9.2l7.83,-5.69l7.83,5.69l-2.98,-9.2l7.83,-5.68z" fill="#0000ff" id="svg_5" transform="matrix(1 0 0 1 0 0)"/>
  <path d="m78.51,17.42l-0.67,-2.08l-4.83,3.51l5.5,-1.43z" fill="#FE330A" id="svg_6"/>
  <path d="m115.84,9.66l-9.69,0l-2.98,-9.21l-3,9.21l-9.68,-0.02l7.83,5.7l-3,9.2l7.84,-5.69l7.83,5.69l-2.99,-9.2l7.84,-5.68z" fill="#0000ff" id="svg_7" transform="matrix(1 0 0 1 0 0)"/>
  <path d="m108.67,17.42l-0.67,-2.08l-4.83,3.51l5.5,-1.43z" fill="#FE330A" id="svg_8"/>
  <path d="m146,10.66l-9.68,0l-2.98,-9.21l-3,9.21l-9.68,-0.02l7.83,5.7l-3,9.2l7.83,-5.69l7.83,5.69l-2.98,-9.2l7.83,-5.68z" fill="#0000ff" id="svg_9" transform="matrix(1 0 0 1 0 0)"/>
  <path d="m138.84,17.42l-0.67,-2.08l-4.83,3.51l5.5,-1.43z" fill="#FE330A" id="svg_10"/>
 </g>
</svg>